# xmcd
#
# Track frame offsets: 
#        150
#        6988
#        21490
#        44403
#        63619
#        78735
#        101834
#        121068
#        138860
#        156078
#        171785
#        190939
#        209162
#        227575
#        247665
#        261958
#        281164
#        299845
#
# Disc length: 4257 seconds
#
# Revision: 0
# Processed by: cddbd v1.5.2PL0 Copyright (c) Steve Scherf et al.
# Submitted via: ExactAudioCopy v0.99pb4
#
DISCID=13109f12
DTITLE=Karin Rudefelt and Doctor Blues - Magic Brew
DYEAR=2008
DGENRE=Blues
TTITLE0=Voodoo Wizard
TTITLE1=Magic Brew
TTITLE2=Monsters Ball
TTITLE3=It Could Have Been You
TTITLE4=The Blues Is Down The Line
TTITLE5=Push Myself Up
TTITLE6=Kinky Woman
TTITLE7=Lover Under Cover
TTITLE8=Diamond Dust
TTITLE9=Borrowed Time
TTITLE10=That's What Blues Is All About
TTITLE11=Kiss Your Shoe
TTITLE12=Brain Debris
TTITLE13=The Party Goes Titanic
TTITLE14=Go Go
TTITLE15=The Piont Of No Return
TTITLE16=It Shit's The Same
TTITLE17=Small Life
EXTD=
EXTT0=
EXTT1=
EXTT2=
EXTT3=
EXTT4=
EXTT5=
EXTT6=
EXTT7=
EXTT8=
EXTT9=
EXTT10=
EXTT11=
EXTT12=
EXTT13=
EXTT14=
EXTT15=
EXTT16=
EXTT17=
PLAYORDER=
